<?xml version="1.0" standalone="no"?>
<!DOCTYPE svg PUBLIC "-//W3C//DTD SVG 20010904//EN"
 "http://www.w3.org/TR/2001/REC-SVG-20010904/DTD/svg10.dtd">
<svg version="1.0" xmlns="http://www.w3.org/2000/svg"
 width="360.000000pt" height="80.000000pt" viewBox="0 0 282.000000 128.000000"
 preserveAspectRatio="xMidYMid meet">

<g transform="translate(0.000000,128.000000) scale(0.100000,-0.100000)"
fill="#ffffff" stroke="none">
<path d="M2117 1174 c-4 -4 -7 -15 -7 -24 0 -14 13 -19 63 -24 128 -15 264
-109 332 -231 29 -52 46 -104 70 -217 6 -29 32 -38 41 -15 9 23 -24 157 -54
221 -58 123 -161 218 -285 264 -59 22 -149 37 -160 26z"/>
<path d="M2117 1043 c-4 -3 -7 -14 -7 -23 0 -13 12 -19 43 -23 141 -19 252
-132 287 -289 10 -45 17 -58 32 -58 21 0 23 22 8 88 -27 115 -112 223 -213
271 -63 29 -138 46 -150 34z"/>
<path d="M1995 923 c-40 -9 -45 -30 -45 -185 l0 -148 -129 0 c-133 0 -181 -9
-181 -34 0 -22 23 -26 171 -26 l139 0 2 -162 c3 -162 3 -163 26 -166 13 -2 34
4 48 12 24 16 24 18 24 166 l0 150 138 0 c126 0 141 2 157 20 10 11 15 23 11
28 -4 4 -75 8 -157 10 l-149 3 0 164 c0 139 -2 164 -16 169 -9 3 -16 5 -17 5
-1 -1 -11 -3 -22 -6z"/>
<path d="M1070 896 c-30 -7 -70 -20 -89 -30 -53 -28 -120 -102 -148 -162 -23
-51 -25 -65 -21 -157 3 -85 8 -110 30 -153 100 -192 390 -229 538 -68 157 170
118 443 -78 543 -34 17 -138 42 -166 40 -6 0 -36 -6 -66 -13z m162 -83 c16
-10 43 -40 60 -66 28 -44 32 -58 36 -149 6 -128 -8 -193 -54 -246 -41 -49 -92
-66 -162 -56 -100 14 -153 92 -160 236 -6 112 3 166 34 214 41 63 78 84 152
84 43 0 74 -6 94 -17z"/>
<path d="M2117 903 c-13 -13 -7 -33 11 -33 34 0 119 -48 143 -81 12 -18 30
-56 39 -83 13 -39 22 -52 39 -54 21 -3 22 -1 16 30 -20 95 -78 176 -150 209
-41 19 -86 25 -98 12z"/>
<path d="M410 891 c-98 -5 -115 -8 -118 -23 -3 -13 11 -24 51 -42 l54 -23 5
-184 c4 -101 3 -211 0 -244 -7 -55 -10 -62 -44 -84 -23 -15 -38 -32 -38 -44 0
-19 5 -20 162 -13 153 6 177 12 178 38 0 3 -15 12 -34 18 -19 6 -46 20 -60 31
l-26 20 0 229 c0 194 2 231 16 244 8 9 19 16 23 16 19 0 60 42 54 55 -6 16 -5
16 -223 6z"/>
<path d="M2143 772 c-6 -4 -16 -19 -22 -34 -14 -36 18 -78 59 -78 32 0 50 23
50 64 0 39 -54 69 -87 48z"/>
</g>
</svg>
